<svg viewBox="0 0 60.67 37.1">
    <path fill="var(--secundary-contrast)" d="M53.28 6.73h-14.4v20.74h2.2a7.7 7.7 0 0113.93 0h5.66V17.28zm-9.66 12.59v-8.84h7.93l5.29 8.82zM0 28.76v3.09h2.8a7 7 0 01-.1-1.12 7.66 7.66 0 01.26-2zm55.75 2a6.49 6.49 0 01-.1 1.16h5v-3.1h-5.16a7.49 7.49 0 01.26 1.91zm-37.9-2a7.72 7.72 0 01.26 2 6.49 6.49 0 01-.1 1.16h22.43a6.49 6.49 0 01-.1-1.16 7.66 7.66 0 01.26-2zm30.2-4.4a6.37 6.37 0 100 12.73 6.37 6.37 0 100-12.73zm0 9.67a3.31 3.31 0 010-6.61 3.3 3.3 0 110 6.59zm-37.64-9.65a6.36 6.36 0 106.38 6.36 6.37 6.37 0 00-6.38-6.36zm0 9.68a3.3 3.3 0 113.3-3.3 3.31 3.31 0 01-3.3 3.3z"/>
    <path fill="var(--secundary)" d="M36.75 0H.59v27.37h2.73a7.71 7.71 0 0113.93 0h19.5z"/>
</svg>