<svg class="svg-sprites" id="skin-sprite" xmlns="http://www.w3.org/2000/svg" xmlns:xlink="http://www.w3.org/1999/xlink">
    <symbol viewBox="0 0 60.67 37.1" id="truck"><path fill="var(--secundary-contrast)" d="M53.28 6.73h-14.4v20.74h2.2a7.7 7.7 0 0113.93 0h5.66V17.28zm-9.66 12.59v-8.84h7.93l5.29 8.82zM0 28.76v3.09h2.8a7 7 0 01-.1-1.12 7.66 7.66 0 01.26-2zm55.75 2a6.49 6.49 0 01-.1 1.16h5v-3.1h-5.16a7.49 7.49 0 01.26 1.91zm-37.9-2a7.72 7.72 0 01.26 2 6.49 6.49 0 01-.1 1.16h22.43a6.49 6.49 0 01-.1-1.16 7.66 7.66 0 01.26-2zm30.2-4.4a6.37 6.37 0 100 12.73 6.37 6.37 0 100-12.73zm0 9.67a3.31 3.31 0 010-6.61 3.3 3.3 0 110 6.59zm-37.64-9.65a6.36 6.36 0 106.38 6.36 6.37 6.37 0 00-6.38-6.36zm0 9.68a3.3 3.3 0 113.3-3.3 3.31 3.31 0 01-3.3 3.3z"/><path fill="var(--secundary)" d="M36.75 0H.59v27.37h2.73a7.71 7.71 0 0113.93 0h19.5z"/></symbol>
    <symbol viewBox="0 0 39 39" id="z-mail"><path d="M39 15.14a3.25 3.25 0 00-1.33-2.62l-4.9-3.58V7.71a3.26 3.26 0 00-3.25-3.25h-2.87L21.41.63a3.21 3.21 0 00-3.82 0l-5.25 3.83H9.47a3.25 3.25 0 00-3.24 3.25v1.23l-4.9 3.58A3.21 3.21 0 000 15.11l.08 22.81A1.08 1.08 0 001.16 39h36.76A1.08 1.08 0 0039 37.92V15.14zM18.86 2.38a1.08 1.08 0 011.26 0L23 4.47h-7zM8.38 7.72a1.08 1.08 0 011.09-1.08h20a1.08 1.08 0 011.08 1.08v12.54l-10.43 7.66a1 1 0 01-1.26 0L8.38 20.26zM2.6 14.27l3.62-2.64v7L2.6 16a1.09 1.09 0 010-1.75zm-.43 4.12l10.91 8-10.85 9.15zM4 36.84l10.84-9.15 2.71 2a3.24 3.24 0 003.81 0l2.71-2L35 36.84zm32.79-1.25l-10.88-9.22 10.92-8zM36.38 16l-3.61 2.64v-7l3.61 2.64a1.08 1.08 0 010 1.75z"/><path d="M11.64 12.57h15.72a1.09 1.09 0 000-2.17H11.64a1.08 1.08 0 00-1.08 1.09 1.07 1.07 0 001.08 1.08zm16.8 4.61a1.08 1.08 0 00-1.08-1.09H11.64a1.09 1.09 0 000 2.17h15.72a1.08 1.08 0 001.08-1.08z"/></symbol>
</svg>